# xmcd CD database file
#
# Track frame offsets:
#	150
#	28884
#	79657
#	115040
#	131660
#	173963
#	209480
#	238110
#
# Disc length: 3563 seconds
#
# Revision: 0
# Processed by: cddbd v1.5.2PL0 Copyright (c) Steve Scherf et al.
# Submitted via: CDex 1.51
#
DISCID=6c0de908
DTITLE=François Bourassa Quartet - Idiosyncrasie
DYEAR=2011
DGENRE=Jazz
TTITLE0=Isola
TTITLE1=Haiku-Darmstadt
TTITLE2=Saucisse à la Berg
TTITLE3=Franz Muller
TTITLE4=Pressiert
TTITLE5=Offrandes
TTITLE6=Chiller Night
TTITLE7=Chant du p'tit Gny
EXTD=YEAR: 2011
EXTT0=
EXTT1=
EXTT2=
EXTT3=
EXTT4=
EXTT5=
EXTT6=
EXTT7=
PLAYORDER=
